# xmcd
#
# Track frame offsets:
#	150
#	12456
#	25537
#	36383
#	49521
#	64160
#	81065
#	99813
#	119460
#	133919
#	154624
#	169286
#	186546
#	198061
#
# Disc length: 2848 seconds
# Revision: 0
# Processed by: cddbd v1.5.2PL0 Copyright (c) Steve Scherf et al.
# Submitted via: dBpowerAMP V12.0
#
DISCID=b50b1e0e
DTITLE=Various Artist - Opening Doors
DYEAR=2017
DGENRE=Country
TTITLE0=Aaron Foster - Each Season Changes You
TTITLE1=Aaron Foster feat. Leigh Gibson - Reaping the Blues
TTITLE2=Aaron Foster feat. Eric and Leigh Gibson - Ten Miles from the Truth
TTITLE3=Aaron Foster - I'm Using My Bible For a Roadmap
TTITLE4=Aaron Foster feat. Jeremy Fritts and Wyatt Rice - More Pretty Girls Than One
TTITLE5=Aaron Foster - I Wonder Where You Are Tonight
TTITLE6=Aaron Foster - There is a Time
TTITLE7=Aaron Foster - Daddy Doesn't Pray Anymore
TTITLE8=Aaron Foster feat. Eric and Leigh Gibson - Songbird
TTITLE9=Aaron Foster - Wayfaring Stranger
TTITLE10=Aaron Foster feat. Eric and Leigh Gibson - Looking for a Smile in a Heartache
TTITLE11=Aaron Foster - Pike County Breakdown
TTITLE12=Aaron Foster - Somebody Touched Me
TTITLE13=Aaron Foster feat. Jeremy Fritts and Wyatt Rice - Temperance Reel
EXTD=
EXTT0=
EXTT1=
EXTT2=
EXTT3=
EXTT4=
EXTT5=
EXTT6=
EXTT7=
EXTT8=
EXTT9=
EXTT10=
EXTT11=
EXTT12=
EXTT13=
PLAYORDER=
